<svg xmlns="http://www.w3.org/2000/svg" viewBox="0 0 84.12 94.44"><g data-name="Слой 2"><path d="M40.4 94.44a18.75 18.75 0 01-2.62-1.61 4.4 4.4 0 01-1.38-3.5c0-.51-.12-.73-.67-.85a4.43 4.43 0 01-2.87-2.15c-.86-1.33-1.68-2.79-2.59-4.14a1.61 1.61 0 00-1.07-.61 2.89 2.89 0 01-2.95-3.09c0-1.34.21-2.67.3-4 0-.2-.1-.41-.1-.62v-5c0-.21.09-.42.07-.62-.09-1.4-.24-2.79-.28-4.19a2.86 2.86 0 011.16-2.31 1.51 1.51 0 00.5-1 17 17 0 00-.04-2.75 6 6 0 00-2.8-4.34 29 29 0 01-11-14.75 29.5 29.5 0 0116-36.34A28 28 0 0139.23.15a4.66 4.66 0 00.62-.15h4.42c2 .37 3.95.62 5.86 1.14a29.49 29.49 0 0121.22 24.64 3.07 3.07 0 01-.11 1.35 1.2 1.2 0 01-1.44.72 1.43 1.43 0 01-1.16-1.37c-.24-1.3-.41-2.61-.75-3.88a26.75 26.75 0 00-52.53 8.59 25.54 25.54 0 0010.73 19.74c3.22 2.37 4.88 5.25 4.63 9.22v1H37v-.86c0-2.8.08-5.6 0-8.39a6.67 6.67 0 00-.87-2.83c-.77-1.39-1.75-2.67-2.65-4a6.9 6.9 0 01-1.21-4v-5.12C29.88 35.21 29 34.1 29 32s.88-3.22 3.3-4c.12-1-.18-2.42 1.5-2.51.92 0 1.24.59 1.37 2.56h2.7a8.23 8.23 0 011.11 0 1.39 1.39 0 011.28 1.43 1.35 1.35 0 01-1.41 1.29h-5.81c-1 0-1.33.35-1.27 1.33a.85.85 0 00.93.91h18.39c.71 0 1.3-.1 1.31-1s-.25-1.24-1.17-1.25h-5.54c-1.15 0-1.79-.51-1.78-1.38s.66-1.37 1.82-1.38 2.14 0 3.32 0v-1.16a1.37 1.37 0 011.29-1.41 1.31 1.31 0 011.42 1.28c-.06 1 .35 1.35 1.27 1.67 1.54.54 2.22 2 2.12 4a3.56 3.56 0 01-2.48 3.22c-.26.09-.52.15-.86.24v4.88a7.33 7.33 0 01-1.36 4.5 44.78 44.78 0 00-2.56 3.83 6.15 6.15 0 00-.81 2.66c-.1 3.1 0 6.2 0 9.36h6.36v-2.02a8.65 8.65 0 013.82-7.46 26.82 26.82 0 0011.33-18.46c.17-1.08.75-1.64 1.57-1.54s1.32.88 1.14 2.05a29.33 29.33 0 01-12.38 20.13 6.16 6.16 0 00-2.75 5.43v1.38a1.34 1.34 0 00.55 1.25 2.69 2.69 0 011 1.48c.3 1.72-.07 3.48-.06 5.18a50.87 50.87 0 01.11 5.1 13.12 13.12 0 000 1.4 38 38 0 010 4.4A2.59 2.59 0 0155 81.54a1.25 1.25 0 00-1.24.71c-.79 1.35-1.65 2.66-2.46 4a4.92 4.92 0 01-3 2.28c-.23.06-.55.34-.55.53a5.34 5.34 0 01-4 5.38zm-5.33-58.51c0 1.72-.09 3.38 0 5a6.54 6.54 0 00.81 2.66c.78 1.39 1.74 2.67 2.65 4a7.06 7.06 0 011.27 4.15v9.39h4.46v-9.28a7.3 7.3 0 011.36-4.4q1.32-1.89 2.57-3.82a3.35 3.35 0 00.67-1.48c.08-2.07 0-4.14 0-6.23zM29.05 67h26v-3h-26zm26 8.74h-26v3h26zm-26-2.9H55v-2.93H29zm4.14 8.74c.71 1.16 1.36 2.17 2 3.19a2.12 2.12 0 002 1.11h9.85a2.12 2.12 0 001.49-.53c.89-1.14 1.62-2.4 2.5-3.75zm6.06 7.1c-.17 1.36.18 2.21 1.07 2.69a4.5 4.5 0 003.79-.2 2.23 2.23 0 00.69-2.49zm40.99-60.3h2.49a1.34 1.34 0 011.39 1.3 1.31 1.31 0 01-1.27 1.42c-1.71.06-3.43.06-5.15 0a1.35 1.35 0 01-1.31-1.4 1.38 1.38 0 011.46-1.33c.8-.01 1.59 0 2.39.01zm-5.3 9.51c.53.22.86.31 1.14.47 1.31.74 2.62 1.48 3.91 2.25a1.41 1.41 0 01.67 2 1.4 1.4 0 01-2 .4c-1.39-.78-2.78-1.58-4.14-2.4a1.19 1.19 0 01-.64-1.55 5.16 5.16 0 011.06-1.17zm5.91-20.03a2.92 2.92 0 01-.71.9c-1.37.86-2.79 1.66-4.21 2.44a1.37 1.37 0 11-1.34-2.39c1.37-.82 2.74-1.63 4.14-2.39 1.03-.56 2.11.05 2.12 1.44zM4.5 43.45c-.38-.34-1-.63-1.09-1.05a1.75 1.75 0 01.4-1.53c1.5-1 3.09-1.87 4.68-2.72a1.2 1.2 0 011.6.53 1.1 1.1 0 01-.09 1.59c-1.67 1.07-3.42 2-5.15 3h-.18zm-.68-12.31H1.61c-1 0-1.6-.54-1.61-1.38s.58-1.36 1.59-1.37H6.2a1.39 1.39 0 011.53 1.35 1.43 1.43 0 01-1.52 1.4c-.8.02-1.59 0-2.39 0zm6.5-11.32c0 1.22-1 1.94-2 1.46-1.55-.81-3-1.7-4.53-2.62a1.24 1.24 0 01-.38-1.79 1.24 1.24 0 011.75-.53c1.54.82 3 1.71 4.52 2.63.37.2.52.67.64.85z" fill="#e53320" data-name="Layer 1"/></g></svg>