<svg xmlns="http://www.w3.org/2000/svg" viewBox="0 0 105.9 63.53"><g data-name="Слой 2"><path d="M0 40a2.63 2.63 0 012.52-1.24h100.81c2 0 2.57.55 2.57 2.58V61c0 2-.57 2.51-2.54 2.51H2.55A2.71 2.71 0 010 62.35zm72.38 2.38h-7.06v6.79a1.76 1.76 0 11-3.5 0v-6.79h-7.1c0 1 .05 2 0 2.92a2.67 2.67 0 01-.45 1.62 2.54 2.54 0 01-1.71.58 1.36 1.36 0 01-1.28-1.4v-3.69h-7.17V49c0 1.34-.66 2.13-1.72 2.15s-1.78-.8-1.81-2.19v-6.58h-6.92c-.06.12-.11.18-.11.24v2.89c0 1.3-.71 2.13-1.76 2.12S30 46.79 30 45.48v-3.09h-7v7.08a1.74 1.74 0 01-3.48-.08V42.4h-7.17v3.48a1.65 1.65 0 01-1.42 1.67 1.55 1.55 0 01-1.83-.85 3.63 3.63 0 01-.25-1.4v-2.93H3.57v17.55h98.75V42.39H97c0 1.23.06 2.4 0 3.56a1.65 1.65 0 01-2.69 1.28 3.05 3.05 0 01-.77-1.79 25.68 25.68 0 010-3h-7.07v6.71a1.82 1.82 0 01-1.74 2 1.84 1.84 0 01-1.78-2v-6.78h-7v3.34a1.81 1.81 0 01-1.78 1.91 1.78 1.78 0 01-1.72-1.94c-.09-1.06-.07-2.13-.07-3.29zM0 1.13A6.86 6.86 0 01.68.39a1.73 1.73 0 012.75.86 3.51 3.51 0 01.09.92v29.12c0 1.6-1 2.54-2.28 2.07a5 5 0 01-1.24-1zm87.35 14.65V8a3 3 0 01.11-1.32c.27-.51.68-1.15 1.16-1.28a1.89 1.89 0 011.6.54c2.78 3.47 5.48 7 8.19 10.52a1.81 1.81 0 010 2.39q-4 5.16-8 10.3a1.65 1.65 0 01-1.9.71A1.77 1.77 0 0187.36 28v-8.56H18.55v8.51a1.79 1.79 0 01-1.14 1.9 1.74 1.74 0 01-2-.85q-3.28-4.26-6.58-8.5c-2.22-2.88-2.22-2.89 0-5.76s4.27-5.55 6.41-8.34c.55-.71 1.12-1.39 2.14-1s1.17 1.25 1.17 2.2v7.34c0 .26 0 .53.05.86zm-72.13-3.5l-.2-.07-4.18 5.41 4.38 5.68zm75.47 11c1.48-1.92 2.81-3.64 4.13-5.37a.61.61 0 000-.54c-1.32-1.74-2.66-3.46-4.16-5.4zm11.69-6.57V2.54a7.09 7.09 0 010-1 1.74 1.74 0 013.44 0 4.79 4.79 0 01.05.93V31a5 5 0 01-.06 1 1.7 1.7 0 01-1.79 1.4 1.66 1.66 0 01-1.6-1.4 5.92 5.92 0 010-1z" fill="#e53320" data-name="Layer 1"/></g></svg>