<svg xmlns="http://www.w3.org/2000/svg" viewBox="0 0 105.9 63.53"><defs><style>.cls-1{fill:#e53320;}</style></defs><title>mesures</title><g id="Слой_2" data-name="Слой 2"><g id="Layer_1" data-name="Layer 1"><path class="cls-1" d="M0,40a2.63,2.63,0,0,1,2.52-1.24q50.4,0,100.81,0c2,0,2.57.55,2.57,2.58V61c0,2-.57,2.51-2.54,2.51H2.55A2.71,2.71,0,0,1,0,62.35Zm72.38,2.38H65.32v1c0,1.93,0,3.86,0,5.79a1.76,1.76,0,1,1-3.5,0c0-.93,0-1.86,0-2.79v-4H54.72c0,1,.05,2,0,2.92a2.67,2.67,0,0,1-.45,1.62,2.54,2.54,0,0,1-1.71.58,1.36,1.36,0,0,1-1.28-1.4c0-1.22,0-2.45,0-3.69H44.11c0,2.25,0,4.42,0,6.59,0,1.34-.66,2.13-1.72,2.15s-1.78-.8-1.81-2.19c0-.86,0-1.72,0-2.58v-4H33.66c-.06.12-.11.18-.11.24,0,1,0,1.92,0,2.89,0,1.3-.71,2.13-1.76,2.12S30,46.79,30,45.48c0-1,0-2,0-3.09H23v4.29c0,.93,0,1.87,0,2.79a1.74,1.74,0,0,1-3.48-.08c0-.55,0-1.1,0-1.65V42.4H12.35c0,1.21,0,2.35,0,3.48a1.65,1.65,0,0,1-1.42,1.67A1.55,1.55,0,0,1,9.1,46.7a3.63,3.63,0,0,1-.25-1.4c0-1,0-2,0-2.93H3.57V59.92h98.75V42.39H97c0,1.23.06,2.4,0,3.56a1.65,1.65,0,0,1-2.69,1.28,3.05,3.05,0,0,1-.77-1.79,25.68,25.68,0,0,1,0-3H86.47c0,2.3,0,4.5,0,6.71a1.82,1.82,0,0,1-1.74,2,1.84,1.84,0,0,1-1.78-2c0-1.62,0-3.24,0-4.86V42.37h-7c0,1.15,0,2.25,0,3.34a1.81,1.81,0,0,1-1.78,1.91,1.78,1.78,0,0,1-1.72-1.94C72.36,44.62,72.38,43.55,72.38,42.39Z"/><path class="cls-1" d="M0,1.13A6.86,6.86,0,0,1,.68.39a1.73,1.73,0,0,1,2.75.86,3.51,3.51,0,0,1,.09.92q0,14.57,0,29.12c0,1.6-1,2.54-2.28,2.07a5,5,0,0,1-1.24-1Z"/><path class="cls-1" d="M87.35,15.78c0-2.63,0-5.21,0-7.78a3,3,0,0,1,.11-1.32c.27-.51.68-1.15,1.16-1.28a1.89,1.89,0,0,1,1.6.54c2.78,3.47,5.48,7,8.19,10.52a1.81,1.81,0,0,1,0,2.39q-4,5.16-8,10.3a1.65,1.65,0,0,1-1.9.71A1.77,1.77,0,0,1,87.36,28c0-2.45,0-4.9,0-7.34V19.44H18.55c0,2.12,0,4.18,0,6.24,0,.76,0,1.52,0,2.27a1.79,1.79,0,0,1-1.14,1.9,1.74,1.74,0,0,1-2-.85q-3.28-4.26-6.58-8.5c-2.22-2.88-2.22-2.89,0-5.76S13.1,9.19,15.24,6.4c.55-.71,1.12-1.39,2.14-1s1.17,1.25,1.17,2.2q0,3.66,0,7.34c0,.26,0,.53.05.86Zm-72.13-3.5-.2-.07-4.18,5.41,4.38,5.68Zm75.47,11c1.48-1.92,2.81-3.64,4.13-5.37a.61.61,0,0,0,0-.54c-1.32-1.74-2.66-3.46-4.16-5.4Z"/><path class="cls-1" d="M102.38,16.71V2.54a7.09,7.09,0,0,1,0-1,1.74,1.74,0,0,1,3.44,0,4.79,4.79,0,0,1,.05.93V31a5,5,0,0,1-.06,1,1.7,1.7,0,0,1-1.79,1.4A1.66,1.66,0,0,1,102.42,32a5.92,5.92,0,0,1,0-1Z"/></g></g></svg>