<svg xmlns="http://www.w3.org/2000/svg" viewBox="0 0 422.22 189.11"><defs><style>.cls-1{fill:#e63320;}.cls-2{fill:#bcc9d1;}.cls-3{fill:#3c3c3b;}</style></defs><title>multi-patio-rampe</title><g id="Слой_2" data-name="Слой 2"><g id="Layer_1" data-name="Layer 1"><path class="cls-1" d="M104.82,67.43,39.72,22.92V15.39a7.65,7.65,0,0,1,1.54-5.11c1-1.2,2.85-2.14,5.49-2.79V4H0V7.49q3.95,1.1,5.49,2.85a5.15,5.15,0,0,1,.72,1.09v22.7l98.61,67.43,98.6-67.43V0Z"/><path class="cls-2" d="M205,154.65a7.49,7.49,0,0,1-1.53-5.05V77l0,0V57.26L104.82,125v0L6.21,59.34V93.46l98.61,65.69v0l65.93-45.32V149.6a7.63,7.63,0,0,1-1.54,5.1q-1.53,1.81-5.49,2.8V161h46.75V157.5Q206.53,156.41,205,154.65Z"/><path class="cls-3" d="M230.67,173.08H241v2.51h-7.58v3.85h7.18V182h-7.18v4.24h8v2.52H230.67Z"/><path class="cls-3" d="M264.65,180.54l-5.22-7.46h3.51l3.69,5.78,3.65-5.78h3.38l-5.13,7.46,5.68,8.18h-3.53l-4.13-6.61-4.11,6.61h-3.36Z"/><path class="cls-3" d="M292.61,173.08h5.26a10.4,10.4,0,0,1,2.18.22,5.12,5.12,0,0,1,1.84.74,3.79,3.79,0,0,1,1.27,1.39,4.46,4.46,0,0,1,.48,2.17,4.85,4.85,0,0,1-.51,2.39,3.69,3.69,0,0,1-1.37,1.4,5.83,5.83,0,0,1-2,.68,15.24,15.24,0,0,1-2.38.17h-2v6.48h-2.79Zm4.46,6.78c.4,0,.81,0,1.24-.05a3.7,3.7,0,0,0,1.18-.26,2.13,2.13,0,0,0,.89-.66,2.05,2.05,0,0,0,.34-1.24,1.92,1.92,0,0,0-.31-1.16,2,2,0,0,0-.79-.66,3.2,3.2,0,0,0-1.09-.3,9.09,9.09,0,0,0-1.15-.07h-2v4.4Z"/><path class="cls-3" d="M322.77,173.08h10.36v2.51h-7.58v3.85h7.18V182h-7.18v4.24h8v2.52H322.77Z"/><path class="cls-3" d="M352.92,173.08h5.44a11,11,0,0,1,2.17.21,5.82,5.82,0,0,1,1.87.71,3.8,3.8,0,0,1,1.3,1.37,4.49,4.49,0,0,1,.49,2.19,4.41,4.41,0,0,1-.94,2.85,4,4,0,0,1-2.69,1.39l4.16,6.92h-3.36l-3.62-6.63h-2v6.63h-2.78Zm4.95,6.62c.4,0,.79,0,1.19,0a3.86,3.86,0,0,0,1.1-.27,1.8,1.8,0,0,0,.8-.64,2,2,0,0,0,.31-1.2,1.87,1.87,0,0,0-.29-1.11,1.77,1.77,0,0,0-.75-.63,3.32,3.32,0,0,0-1-.27,8.19,8.19,0,0,0-1.09-.07H355.7v4.24Z"/><path class="cls-3" d="M386.3,175.59h-4.8v-2.51h12.38v2.51h-4.8v13.13H386.3Z"/><path class="cls-3" d="M420.1,176.43a2.67,2.67,0,0,0-1.18-.94,4.36,4.36,0,0,0-1.56-.29,3.61,3.61,0,0,0-.94.11,2.51,2.51,0,0,0-.82.35,1.76,1.76,0,0,0-.58.63,1.79,1.79,0,0,0-.22.92,1.42,1.42,0,0,0,.55,1.21,5.19,5.19,0,0,0,1.37.73c.54.21,1.14.41,1.79.6a7.38,7.38,0,0,1,1.79.79,4.52,4.52,0,0,1,1.37,1.35,4.07,4.07,0,0,1,.55,2.23,4.92,4.92,0,0,1-.47,2.2,4.43,4.43,0,0,1-1.24,1.56,5.44,5.44,0,0,1-1.83.92,7.46,7.46,0,0,1-2.18.31,8.3,8.3,0,0,1-2.81-.48,5.44,5.44,0,0,1-2.32-1.64l2.1-2a3.37,3.37,0,0,0,1.34,1.2,3.63,3.63,0,0,0,2.73.3,3.05,3.05,0,0,0,.88-.4,2.05,2.05,0,0,0,.64-.67,1.8,1.8,0,0,0,.24-.94,1.62,1.62,0,0,0-.55-1.32,5,5,0,0,0-1.37-.79c-.55-.21-1.14-.41-1.79-.6a8,8,0,0,1-1.79-.79,4.42,4.42,0,0,1-1.37-1.32,4,4,0,0,1-.55-2.22,4.24,4.24,0,0,1,.5-2.1,4.48,4.48,0,0,1,1.3-1.47,5.68,5.68,0,0,1,1.84-.87,7.64,7.64,0,0,1,2.12-.29,7.72,7.72,0,0,1,2.4.37,5.72,5.72,0,0,1,2.09,1.24Z"/><rect class="cls-1" x="229.22" y="159.25" width="193" height="1.45"/><polygon class="cls-3" points="347.11 112.39 330.76 131.78 307.64 104.37 307.64 145.45 314.39 145.45 314.39 123.31 330.69 142.24 346.99 123.26 346.99 145.45 353.87 145.45 353.87 104.79 347.11 112.39"/><polygon class="cls-1" points="268.31 8.69 251.96 28.08 228.84 0.67 228.84 41.74 235.59 41.74 235.59 19.61 251.89 38.53 268.19 19.56 268.19 41.74 275.08 41.74 275.08 1.08 268.31 8.69"/><path class="cls-3" d="M257.51,62.54a11,11,0,0,0-3.1-4.09,13.91,13.91,0,0,0-4.72-2.51,19.38,19.38,0,0,0-5.94-.86H228.91V93.83h6.71V81.09h7.45a20.92,20.92,0,0,0,5.84-.8,15,15,0,0,0,5-2.47,12.28,12.28,0,0,0,3.43-4.16,12.53,12.53,0,0,0,1.28-5.76A13.05,13.05,0,0,0,257.51,62.54Zm-5.64,5.51a6.17,6.17,0,0,1-.58,2.72,5.81,5.81,0,0,1-1.64,2.06,8.33,8.33,0,0,1-2.72,1.4,12.79,12.79,0,0,1-3.68.5h-7.63V61.48h7.84a10.32,10.32,0,0,1,6.27,1.72h0A5.59,5.59,0,0,1,251.87,68.05Z"/><polygon class="cls-3" points="296.19 55.03 296.19 61.44 308.32 61.44 308.32 93.79 315.03 93.79 315.03 61.44 327.15 61.44 327.15 55.03 296.19 55.03"/><rect class="cls-3" x="337.14" y="55.03" width="6.71" height="38.76"/><path class="cls-3" d="M391.91,66.74A19,19,0,0,0,381.67,56a20.88,20.88,0,0,0-16.11,0,19.77,19.77,0,0,0-6.26,4.4,20.16,20.16,0,0,0-4,6.38,21.21,21.21,0,0,0,0,15.26A19.08,19.08,0,0,0,365.49,92.8a20.78,20.78,0,0,0,16.11,0,19.31,19.31,0,0,0,6.25-4.4,19.89,19.89,0,0,0,4-6.37,20.47,20.47,0,0,0,1.44-7.64A21,21,0,0,0,391.91,66.74Zm-5.46,7.73a14.61,14.61,0,0,1-1,5.32,13.57,13.57,0,0,1-2.65,4.31,12.24,12.24,0,0,1-4,2.86A12.75,12.75,0,0,1,364.37,84a13,13,0,0,1-2.69-4.31,14.87,14.87,0,0,1-1-5.36,14.37,14.37,0,0,1,1-5.32,13.68,13.68,0,0,1,2.65-4.31,12,12,0,0,1,4-2.86,12.54,12.54,0,0,1,5.17-1,12.33,12.33,0,0,1,5.15,1.07,12.83,12.83,0,0,1,6.8,7.22h0A14.83,14.83,0,0,1,386.45,74.47Z"/><path class="cls-3" d="M249.94,130.23a13.89,13.89,0,0,0,2.1-.88,12,12,0,0,0,3.29-2.46,10.68,10.68,0,0,0,2.19-3.53,12.64,12.64,0,0,0,.76-4.52,12.29,12.29,0,0,0-1-5,11,11,0,0,0-2.81-3.86,12.52,12.52,0,0,0-4.3-2.45,16.67,16.67,0,0,0-5.5-.85H228.78v38.76h6.46v-14h7.7l9.85,14h7.94Zm-14.7-17.1h9.19a8.61,8.61,0,0,1,5.58,1.59h0a5.18,5.18,0,0,1,1.8,4.29,6,6,0,0,1-.53,2.6,5.27,5.27,0,0,1-1.46,1.9,7.35,7.35,0,0,1-2.34,1.24,10.14,10.14,0,0,1-3.1.45h-9.14Z"/><path class="cls-3" d="M388,114.18a11,11,0,0,0-2.91-4.09,13.07,13.07,0,0,0-4.48-2.53,17.45,17.45,0,0,0-5.63-.87h-14v38.76h6.47V132.7h6.92a18.44,18.44,0,0,0,5.53-.81,13.56,13.56,0,0,0,4.7-2.48,12.24,12.24,0,0,0,3.24-4.16h0a13.19,13.19,0,0,0,1.19-5.73A13.63,13.63,0,0,0,388,114.18Zm-5.47,5.49a6.7,6.7,0,0,1-.54,2.74,5.9,5.9,0,0,1-1.55,2.06,7.38,7.38,0,0,1-2.52,1.38,11.05,11.05,0,0,1-3.41.5H367.4V113.09h7.29a9.2,9.2,0,0,1,5.82,1.7A5.8,5.8,0,0,1,382.51,119.67Z"/><polygon class="cls-3" points="401.27 139.09 401.27 129.09 419.79 129.09 419.79 122.74 401.27 122.74 401.27 113.04 421.98 113.04 421.98 106.69 394.8 106.69 394.8 145.45 422.22 145.45 422.22 139.09 401.27 139.09"/><rect class="cls-1" x="405.33" y="70.88" width="9.49" height="9.49" transform="translate(66.63 312.12) rotate(-45)"/><path class="cls-3" d="M292.3,93.82h7.36l-7.84-15.38v-.16h-.08L279.12,53.54,258.59,93.82H266l4.62-9.06h17.11ZM279.12,68l5.25,10.27H273.88Z"/><path class="cls-3" d="M297.37,145.47h7.36l-7.84-15.38v-.15h-.08L284.19,105.2l-20.53,40.27H271l4.62-9.06h17.11Zm-13.18-25.81,5.25,10.28H279Z"/><path class="cls-1" d="M285.06,24.74V1.66h7.05V24.45c0,7.45,3.83,11.46,10.13,11.46s10.08-3.78,10.08-11.17V1.66h7.05V24.39c0,12-6.76,18-17.24,18S285.06,36.37,285.06,24.74Z"/><path class="cls-1" d="M329.79,1.66h7V35.34h21.08v6.41H329.79Z"/><path class="cls-1" d="M372.46,8.19H359.75V1.66h32.53V8.19H379.56V41.75h-7.1Z"/><path class="cls-1" d="M404.43,1.66h7.05V41.75h-7.05Z"/></g></g></svg>