<svg xmlns="http://www.w3.org/2000/svg" viewBox="0 0 420.8 180.1"><defs><style>.cls-1{fill:#1a4a24;}.cls-2,.cls-5,.cls-7{fill:none;}.cls-2{stroke:#113919;stroke-miterlimit:10;}.cls-2,.cls-4{stroke-width:0.5px;}.cls-3,.cls-4,.cls-8{fill:#fff;}.cls-3,.cls-4,.cls-5{stroke:#eb6215;}.cls-6{fill:#eb6215;}.cls-7{stroke:#1a4a24;stroke-linecap:round;stroke-linejoin:round;}.cls-9{fill:#113919;}</style></defs><title>patio-rampe</title><g id="Слой_2" data-name="Слой 2"><g id="Layer_1" data-name="Layer 1"><rect class="cls-1" x="48.62" y="68.3" width="331.39" height="56.86"/><polygon class="cls-1" points="308.57 33.74 68.25 33.74 68.25 44.23 53.7 44.23 53.7 0.25 68.25 0.25 68.25 10.73 308.57 10.73 332.86 22.23 308.57 33.74"/><polygon class="cls-2" points="308.57 33.74 68.25 33.74 68.25 44.23 53.7 44.23 53.7 0.25 68.25 0.25 68.25 10.73 308.57 10.73 332.86 22.23 308.57 33.74"/><path class="cls-1" d="M33.12,29.14H47.38v-15H33.12c-14,0-17.31,5.1-20,9.35-2.79,4.44-2.76,10.11-2.76,17.93V70H.4L10.6,91.17H25.22L35.42,70h-10V41.37c.13-8.53,1-12.29,7.69-12.23"/><path class="cls-2" d="M33.12,29.14H47.38v-15H33.12c-14,0-17.31,5.1-20,9.35-2.79,4.44-2.76,10.11-2.76,17.93V70H.4L10.6,91.17H25.22L35.42,70h-10V41.37C25.56,32.84,26.44,29.08,33.12,29.14Z"/><polygon class="cls-1" points="186.26 144.68 186.26 154.56 92.28 154.56 92.28 169.82 186.26 169.82 186.26 179.7 207.43 169.5 207.43 154.88 186.26 144.68"/><polygon class="cls-2" points="186.26 144.68 186.26 154.56 92.28 154.56 92.28 169.82 186.26 169.82 186.26 179.7 207.43 169.5 207.43 154.88 186.26 144.68"/><polygon class="cls-1" points="309.18 144.68 309.18 154.56 215.2 154.56 215.2 169.82 309.18 169.82 309.18 179.7 330.35 169.5 330.35 154.88 309.18 144.68"/><polygon class="cls-2" points="309.18 144.68 309.18 154.56 215.2 154.56 215.2 169.82 309.18 169.82 309.18 179.7 330.35 169.5 330.35 154.88 309.18 144.68"/><path class="cls-1" d="M83.76,154.25v15.06l-46,.33c-7.83,0-13.5,0-17.94-2.76-4.25-2.67-9.34-6-9.34-20V98.57H25.53v48.34c-.07,6.68,3.7,7.55,12.23,7.68Z"/><path class="cls-2" d="M83.76,154.25v15.06l-46,.33c-7.83,0-13.5,0-17.94-2.76-4.25-2.67-9.34-6-9.34-20V98.57H25.53v48.34c-.07,6.68,3.7,7.55,12.23,7.68Z"/><path class="cls-1" d="M420.4,120.43,410.2,99.26H395.58l-10.2,21.17h9.85l.31,22c-.12,8.53-1,12.29-7.68,12.23H339.52v15.05h48.34c14,0,17.31-5.1,20-9.34,2.79-4.44,2.76-10.12,2.76-17.94l-.32-22Z"/><path class="cls-2" d="M420.4,120.43,410.2,99.26H395.58l-10.2,21.17h9.85l.31,22c-.12,8.53-1,12.29-7.68,12.23H339.52v15.05h48.34c14,0,17.31-5.1,20-9.34,2.79-4.44,2.76-10.12,2.76-17.94l-.32-22Z"/><path class="cls-1" d="M401,18c-4.44-2.79-10.11-2.76-17.93-2.76l-21.53.31V5.45l-21.17,10.2V30.27l21.17,10.2V30.61L383,30.3c8.53.13,12.29,1,12.23,7.69V91.84H410.3V38c0-14-5.1-17.31-9.35-20"/><path class="cls-2" d="M401,18c-4.44-2.79-10.11-2.76-17.93-2.76l-21.53.31V5.45l-21.17,10.2V30.27l21.17,10.2V30.61L383,30.3c8.53.13,12.29,1,12.23,7.69V91.84H410.3V38C410.3,24,405.2,20.68,401,18Z"/><path class="cls-3" d="M257.6,78.85c1.66,0,2.33.79,2.33,2.48,0,2.06-.52,2.88-2.33,2.88h-9.51V78.85Zm.24-5.26H241.6V94.74h6.49V89.47h12.07c4.69,0,6.35-2.27,6.35-7.94,0-3.67-.79-5.88-3.06-7.07C262.11,73.76,260.31,73.59,257.84,73.59Z"/><path class="cls-3" d="M277.37,86.13l4-7.48,4.1,7.48Zm-4.51,8.61,2.07-3.52h12.89l2,3.52H297L285.6,73.59h-8.23L265.82,94.74Z"/><polygon class="cls-4" points="309.34 94.74 309.34 78.77 318.19 78.77 318.19 73.59 294.03 73.59 294.03 78.77 302.88 78.77 302.88 94.74 309.34 94.74"/><rect class="cls-4" x="320.92" y="73.59" width="6.46" height="21.15"/><path class="cls-3" d="M341.64,95h7.56c3.84,0,6.49-.17,8.24-1.48s2.27-3.26,2.27-6.4V81.21c0-3.14-.67-5.18-2.27-6.4s-4.37-1.49-8.24-1.49h-7.59c-3.87,0-6.49.21-8.21,1.49s-2.3,3.4-2.3,6.66v5.76c0,3.06.59,5,2.3,6.29S337.85,95,341.64,95Zm1.74-5.29c-4.1,0-5.7-.64-5.7-4V82.78c0-3.58,1.48-4.16,5.67-4.16h4.14c4.1,0,5.67.61,5.67,4v3c0,3.44-1.57,4-5.67,4Z"/><path class="cls-4" d="M243.26,106c1.66,0,2.32.75,2.32,2.38,0,2-.52,2.79-2.32,2.79H233V106Zm.23-5.27h-17v21.15H233v-5.41h9.63c2.12,0,2.91.38,2.91,2.18v3.23H252V117.5c0-2.16-1.14-3.49-3.35-4,2.65-.64,3.52-2.38,3.52-5.88C252.16,102.1,249.89,100.68,243.49,100.68Z"/><path class="cls-4" d="M264.18,113.22l4-7.48,4.11,7.48Zm-4.51,8.61,2.06-3.52h12.89l2,3.52h7.1l-11.35-21.15h-8.23l-11.55,21.15Z"/><polygon class="cls-4" points="291.85 121.83 291.85 106.76 300.52 121.83 304.74 121.83 313.47 106.76 313.47 121.83 319.73 121.83 319.73 100.68 310.33 100.68 302.65 113.89 295.11 100.68 285.57 100.68 285.57 121.83 291.85 121.83"/><path class="cls-4" d="M339.75,106c1.66,0,2.32.78,2.32,2.47,0,2.06-.52,2.88-2.32,2.88h-9.52V106Zm.23-5.27H323.74v21.15h6.49v-5.26h12.08c4.68,0,6.34-2.27,6.34-7.95,0-3.66-.79-5.88-3.06-7.07C344.26,100.85,342.45,100.68,340,100.68Z"/><polygon class="cls-4" points="374.75 105.83 374.75 100.68 351.65 100.68 351.65 121.83 375.01 121.83 375.01 116.71 358.11 116.71 358.11 113.48 373.79 113.48 373.79 109.03 358.11 109.03 358.11 105.83 374.75 105.83"/><path class="cls-4" d="M257.6,78.85c1.66,0,2.33.79,2.33,2.48,0,2.06-.52,2.88-2.33,2.88h-9.51V78.85Zm.24-5.26H241.6V94.74h6.49V89.47h12.07c4.69,0,6.35-2.27,6.35-7.94,0-3.67-.79-5.88-3.06-7.07C262.11,73.76,260.31,73.59,257.84,73.59Z"/><path class="cls-4" d="M277.37,86.13l4-7.48,4.1,7.48Zm-4.51,8.61,2.07-3.52h12.89l2,3.52H297L285.6,73.59h-8.23L265.82,94.74Z"/><polygon class="cls-5" points="309.34 94.74 309.34 78.77 318.19 78.77 318.19 73.59 294.03 73.59 294.03 78.77 302.88 78.77 302.88 94.74 309.34 94.74"/><rect class="cls-5" x="320.92" y="73.59" width="6.46" height="21.15"/><path class="cls-4" d="M341.64,95h7.56c3.84,0,6.49-.17,8.24-1.48s2.27-3.26,2.27-6.4V81.21c0-3.14-.67-5.18-2.27-6.4s-4.37-1.49-8.24-1.49h-7.59c-3.87,0-6.49.21-8.21,1.49s-2.3,3.4-2.3,6.66v5.76c0,3.06.59,5,2.3,6.29S337.85,95,341.64,95Zm1.74-5.29c-4.1,0-5.7-.64-5.7-4V82.78c0-3.58,1.48-4.16,5.67-4.16h4.14c4.1,0,5.67.61,5.67,4v3c0,3.44-1.57,4-5.67,4Z"/><path class="cls-5" d="M243.26,106c1.66,0,2.32.75,2.32,2.38,0,2-.52,2.79-2.32,2.79H233V106Zm.23-5.27h-17v21.15H233v-5.41h9.63c2.12,0,2.91.38,2.91,2.18v3.23H252V117.5c0-2.16-1.14-3.49-3.35-4,2.65-.64,3.52-2.38,3.52-5.88C252.16,102.1,249.89,100.68,243.49,100.68Z"/><path class="cls-5" d="M264.18,113.22l4-7.48,4.11,7.48Zm-4.51,8.61,2.06-3.52h12.89l2,3.52h7.1l-11.35-21.15h-8.23l-11.55,21.15Z"/><polygon class="cls-5" points="291.85 121.83 291.85 106.76 300.52 121.83 304.74 121.83 313.47 106.76 313.47 121.83 319.73 121.83 319.73 100.68 310.33 100.68 302.65 113.89 295.11 100.68 285.57 100.68 285.57 121.83 291.85 121.83"/><path class="cls-5" d="M339.75,106c1.66,0,2.32.78,2.32,2.47,0,2.06-.52,2.88-2.32,2.88h-9.52V106Zm.23-5.27H323.74v21.15h6.49v-5.26h12.08c4.68,0,6.34-2.27,6.34-7.95,0-3.66-.79-5.88-3.06-7.07C344.26,100.85,342.45,100.68,340,100.68Z"/><polygon class="cls-5" points="374.75 105.83 374.75 100.68 351.65 100.68 351.65 121.83 375.01 121.83 375.01 116.71 358.11 116.71 358.11 113.48 373.79 113.48 373.79 109.03 358.11 109.03 358.11 105.83 374.75 105.83"/><polygon class="cls-6" points="53.7 50.92 68.2 50.92 79.54 104.7 91.26 50.92 105.45 50.92 105.45 141.34 93.89 141.34 94.65 88.97 84.18 141.34 74.07 141.34 63.83 88.97 64.73 141.34 53.7 141.34 53.7 50.92"/><polygon class="cls-7" points="53.7 50.92 68.2 50.92 79.54 104.7 91.26 50.92 105.45 50.92 105.45 141.34 93.89 141.34 94.65 88.97 84.18 141.34 74.07 141.34 63.83 88.97 64.73 141.34 53.7 141.34 53.7 50.92"/><path class="cls-6" d="M125.16,50.93v72.85c0,5.11.68,6.36,3.4,6.36s3.4-1.25,3.4-6.36V50.93H144.2v61.23c0,10.47.78,18.08-1.87,23.81-2.49,5.37-7.57,6.49-14.07,6.49s-11.58-1-14.07-6.49c-2.64-5.73-1.79-13.46-1.79-23.81V50.93Z"/><path class="cls-7" d="M125.16,50.93v72.85c0,5.11.68,6.36,3.4,6.36s3.4-1.25,3.4-6.36V50.93H144.2v61.23c0,10.47.78,18.08-1.87,23.81-2.49,5.37-7.57,6.49-14.07,6.49s-11.58-1-14.07-6.49c-2.64-5.73-1.79-13.46-1.79-23.81V50.93Z"/><polygon class="cls-6" points="151 50.92 163.77 50.92 163.77 129.64 177.36 129.64 177.36 141.34 151 141.34 151 50.92"/><polygon class="cls-7" points="151 50.92 163.77 50.92 163.77 129.64 177.36 129.64 177.36 141.34 151 141.34 151 50.92"/><polygon class="cls-6" points="181.68 64.13 173.14 64.13 173.14 50.92 203.06 50.92 203.06 64.13 194.45 64.13 194.45 141.34 181.68 141.34 181.68 64.13"/><polygon class="cls-7" points="181.68 64.13 173.14 64.13 173.14 50.92 203.06 50.92 203.06 64.13 194.45 64.13 194.45 141.34 181.68 141.34 181.68 64.13"/><rect class="cls-6" x="207.34" y="50.93" width="12.77" height="90.41"/><rect class="cls-7" x="207.34" y="50.93" width="12.77" height="90.41"/><path class="cls-8" d="M74.36,31.75a1.63,1.63,0,0,1-1.63-1.63V14.38a1.63,1.63,0,0,1,3.25,0V30.12a1.63,1.63,0,0,1-1.62,1.63"/><path class="cls-9" d="M74.36,13.59a.8.8,0,0,1,.79.79V30.12a.79.79,0,0,1-1.58,0V14.38a.79.79,0,0,1,.79-.79m0-1.67a2.47,2.47,0,0,0-2.47,2.46V30.12a2.47,2.47,0,0,0,4.93,0V14.38a2.46,2.46,0,0,0-2.46-2.46"/><path class="cls-8" d="M84.17,31.75a1.63,1.63,0,0,1-1.63-1.63V14.38a1.63,1.63,0,0,1,3.25,0V30.12a1.62,1.62,0,0,1-1.62,1.63"/><path class="cls-9" d="M84.17,13.59a.8.8,0,0,1,.79.79V30.12a.79.79,0,0,1-1.58,0V14.38a.79.79,0,0,1,.79-.79m0-1.67a2.46,2.46,0,0,0-2.46,2.46V30.12a2.46,2.46,0,1,0,4.92,0V14.38a2.46,2.46,0,0,0-2.46-2.46"/><path class="cls-8" d="M93.41,31.75a1.63,1.63,0,0,1-1.62-1.63V14.38a1.63,1.63,0,0,1,3.25,0V30.12a1.63,1.63,0,0,1-1.63,1.63"/><path class="cls-9" d="M93.41,13.59a.79.79,0,0,1,.79.79V30.12a.79.79,0,1,1-1.58,0V14.38a.8.8,0,0,1,.79-.79m0-1.67A2.46,2.46,0,0,0,91,14.38V30.12a2.46,2.46,0,1,0,4.92,0V14.38a2.46,2.46,0,0,0-2.46-2.46"/><path class="cls-8" d="M308.15,28.91c-1.47,0-1.63-.72-1.63-1v-4c0-.31.16-1,1.63-1s1.63.73,1.63,1v4c0,.32-.16,1-1.63,1"/><path class="cls-9" d="M308.15,23.63c.44,0,.79.09.79.2v4c0,.12-.35.21-.79.21s-.79-.09-.79-.21v-4c0-.11.35-.2.79-.2m0-1.68c-2.34,0-2.46,1.57-2.46,1.88v4c0,.32.12,1.88,2.46,1.88s2.46-1.56,2.46-1.88v-4c0-.31-.12-1.88-2.46-1.88"/><path class="cls-8" d="M314,28.91c-1.47,0-1.63-.72-1.63-1v-4c0-.31.16-1,1.63-1s1.62.73,1.62,1v4c0,.32-.15,1-1.62,1"/><path class="cls-9" d="M314,23.63c.43,0,.79.09.79.2v4c0,.12-.36.21-.79.21s-.79-.09-.79-.21v-4c0-.11.35-.2.79-.2M314,22c-2.35,0-2.46,1.57-2.46,1.88v4c0,.32.11,1.88,2.46,1.88s2.46-1.56,2.46-1.88v-4c0-.31-.12-1.88-2.46-1.88"/></g></g></svg>