<svg xmlns="http://www.w3.org/2000/svg" viewBox="0 0 2203.84 507.15"><defs><clipPath id="a" transform="translate(200.3 18.86)"><path fill="none" d="M0 0h1842.29v438.24H0z"/></clipPath></defs><g data-name="Слой 2"><g clip-path="url(#a)" data-name="Layer 1"><path d="M53.93 506.92L313.49.23M107.93 506.92L367.49.23M161.93 506.92L421.49.23M215.93 506.92L475.49.23M323.92 506.92L583.48.23M377.92 506.92L637.48.23M431.92 506.92L691.47.23M485.91 506.92L745.47.23M539.91 506.92L799.47.23M593.91 506.92L853.47.23M647.9 506.92L907.46.23M701.9 506.92L961.46.23M755.9 506.92L1015.46.23M809.9 506.92L1069.46.23M863.89 506.92L1123.45.23M917.89 506.92L1177.45.23M971.89 506.92L1231.45.23m-205.56 506.69L1285.44.23m-205.56 506.69L1339.44.23m-205.56 506.69L1393.44.23m-205.56 506.69L1447.44.23m-205.57 506.69L1501.43.23m-205.56 506.69L1555.43.23m-205.56 506.69L1609.43.23m-205.56 506.69L1663.43.23m-205.57 506.69L1717.42.23m-205.56 506.69L1771.42.23m-205.56 506.69L1825.42.23m-205.56 506.69L1879.42.23m-205.57 506.69L1933.41.23m-205.56 506.69L1987.41.23m-205.56 506.69L2041.41.23m-205.57 506.69L2095.4.23m-205.56 506.69L2149.4.23m-205.56 506.69L2203.4.23M269.92 506.92L529.48.23M.45 506.92L260 .23" fill="none" stroke="#424241" stroke-miterlimit="10"/></g></g></svg>