<svg xmlns="http://www.w3.org/2000/svg" viewBox="0 0 102.46 107.32"><g data-name="Слой 2"><path d="M2.1 107.32c-2.41-1.32-2.72-2.83-1.1-5.1l27.94-38.76c.62-.86 1.19-1.76 2.46-1.68.18 0 .42-.31.56-.53.46-.74.89-1.5 1.31-2.26a2.64 2.64 0 012.06-1.39c1.12-.19 1.47-1.28 1.71-2.24.9-3.52 1.73-7 2.58-10.58.6-2.47 1.18-5 1.82-7.41a1.26 1.26 0 00-.59-1.56 14.43 14.43 0 00-8.85-2.6c-3.8.1-7.61.17-11.42.23a5.35 5.35 0 01-5.3-3.52c-.34-.88-.64-1.77-.91-2.67a1.58 1.58 0 01.92-2.15c.89-.32 1.68.12 2.08 1.21.26.72.46 1.47.72 2.19a2.4 2.4 0 002.62 1.8c3.14-.06 6.29 0 9.43-.2 4.67-.27 9.06.42 12.9 3.44L49 26.13c-.54-.45-1.14-.92-1.71-1.42a17 17 0 01-5.08-8.38c-1-3.57-2-7.12-3-10.68C38.7 4 38.1 3.51 36.42 3.46q-6.42-.19-12.89-.3a5 5 0 00-1.41.53L31 10.26a6.77 6.77 0 012.85 4.12 6.42 6.42 0 01-2.45 6.88 6.07 6.07 0 01-7.34.5c-2.92-1.84-5.62-4-8.42-6.05l-1.5-1.11A4.44 4.44 0 0014 16c.2.84.52 1.66.79 2.49.39 1.25.07 2.12-.88 2.43s-1.69-.25-2.12-1.5L11 17a4 4 0 011.42-4.85 3 3 0 013.85.09c2.84 2.08 5.65 4.21 8.51 6.28a5.26 5.26 0 002.06.93 3.44 3.44 0 003.81-2.12A3.55 3.55 0 0029.42 13c-2.76-2-5.55-4.09-8.33-6.15A9.62 9.62 0 0120 6a2.75 2.75 0 01-.76-3.06A4 4 0 0123.47 0c4.33.1 8.66.18 13 .33 3.21.11 4.84 1.44 5.72 4.51 1.19 4.12 2.33 8.25 3.63 12.34 1 3.26 3.51 5.39 6.23 7.24a1.3 1.3 0 00.79.13 8 8 0 014.77.85c1.74-2.35 3.9-3.92 7-3.23s4.58 2.83 5 5.9A5.92 5.92 0 0174.85 30a13.17 13.17 0 011.66 3.18c.18.43.24.72.81.68a6.2 6.2 0 016.57 7.1 1.53 1.53 0 000 .3c4.81.56 7.49 5.64 4.51 10.15.26.2.52.43.79.63 3.23 2.39 6.47 4.76 9.68 7.18 3.67 2.76 4.59 7 2.37 10.72a7.7 7.7 0 01-10.76 2.61c-3-2-5.77-4.18-8.64-6.28L77.48 63c-.86 1-1.75 2-2.48 3.07a12.12 12.12 0 01-8.95 5c-2 .21-3.94.55-5.9.86a.92.92 0 00-.67.35c-.62 1.23-1.19 2.48-1.74 3.75a2.61 2.61 0 00-.06.85 5.81 5.81 0 010 2.09c-2.29 5.28-4.65 10.53-7 15.78-.52 1.14-1.34 1.52-2.23 1.1s-1.12-1.27-.61-2.41q3.09-7 6.21-14c.16-.34.3-.69.49-1.14l-22.92-13-28 38.82c.36 0 .62.09.87.09h37.63a1.08 1.08 0 001.24-.79 24.73 24.73 0 011.15-2.58 1.56 1.56 0 112.85 1.26 24.12 24.12 0 01-1.66 3.61 7.91 7.91 0 01-1.81 1.63zM54 45.6c-.75 1.39-1.42 2.72-2.19 4a1.57 1.57 0 01-2.3.73 1.59 1.59 0 01-.28-2.46 9.56 9.56 0 001.66-7.45 2.11 2.11 0 01.74-2 5 5 0 016.26-.57c1 .71 2 1.54 3 2.31 1.63 1.26 2.84 1.06 4.25-.71s1.36-3-.25-4.31q-4-3.19-8-6.34a4.33 4.33 0 00-6.22.34c-1.9 2.12-3.58 4.45-5.31 6.73a5 5 0 00-.74 1.71c-1 4-1.89 8-3 12-.9 3.25-1 6.78-3.07 9.68a1 1 0 00.22.2l17 9.79a1.38 1.38 0 00.77.16c2.1-.32 4.2-.64 6.29-1A41.41 41.41 0 0069 67c2.86-1 4-3.86 6-5.9zm24.5 14.15c.41.35.61.54.82.69q6 4.47 12 8.91c2 1.46 4.07 1.6 5.83.42a4.73 4.73 0 000-7.89C94 59.41 90.69 57 87.41 54.59c-.33-.25-.66-.48-1-.72-2.27 2.39-3.63 5.84-7.89 5.88zM73 49.32a7.26 7.26 0 002.11-1.16c1.8-2 3.5-4.17 5.15-6.33A3.05 3.05 0 0075.48 38c-1.75 2.08-3.44 4.22-5.1 6.38a2.82 2.82 0 00-.1 3.17A3.56 3.56 0 0073 49.32zm5.74 7.51a7.16 7.16 0 002.11-1.17c1.82-2.11 3.56-4.3 5.24-6.53a2.88 2.88 0 00-.66-4 2.92 2.92 0 00-4.11.49c-.54.64-1 1.31-1.58 2-1.14 1.41-2.31 2.8-3.42 4.24A2.8 2.8 0 0076 55a3.56 3.56 0 002.7 1.83zm-43.1 4.35l-1.22 2.13 20.31 11.54 1.13-2zM72.5 52.3c-3.1-.52-5.07-2.18-5.71-5.31 0-.21-.54-.46-.83-.46a6.7 6.7 0 01-4.66-1.79c-1.55-1.4-3.15-2.72-4.75-4.06a2 2 0 00-1-.51c-.45 0-1.25.08-1.3.27a3.21 3.21 0 00.24 1.56c.06.19.37.3.56.45l16.73 12.4c.28.2.57.38.87.59zm-6.74-9.06l.19.33A11.17 11.17 0 0068.13 42c1.62-1.86 3.13-3.82 4.65-5.78a3.29 3.29 0 00.65-1.39 3 3 0 00-2-3.48c-1.52-.52-2.94.12-3.88 1.75 2.83 3.57 2.32 6.42-1.79 10.14zm-.82-12.15c1.17-1.2 1.91-2.42 1.25-4a2.92 2.92 0 00-2.64-1.91c-1.6-.1-2.55.86-3.34 2.16z" fill="#e53320" data-name="Layer 1"/></g></svg>