<svg xmlns="http://www.w3.org/2000/svg" viewBox="0 0 422.22 189.11"><defs><style>.cls-1{fill:#e63320}.cls-3{fill:#3c3c3b}</style></defs><g id="Слой_2" data-name="Слой 2"><g id="Layer_1" data-name="Layer 1"><path class="cls-1" d="M104.82 67.43l-65.1-44.51v-7.53a7.65 7.65 0 011.54-5.11c1-1.2 2.85-2.14 5.49-2.79V4H0v3.49q3.95 1.1 5.49 2.85a5.15 5.15 0 01.72 1.09v22.7l98.61 67.43 98.6-67.43V0z"/><path d="M205 154.65a7.49 7.49 0 01-1.53-5.05V57.26L104.82 125 6.21 59.34v34.12l98.61 65.69 65.93-45.32v35.77a7.63 7.63 0 01-1.54 5.1q-1.53 1.81-5.49 2.8v3.5h46.75v-3.5q-3.94-1.09-5.47-2.85z" fill="#bcc9d1"/><path class="cls-3" d="M230.67 173.08H241v2.51h-7.58v3.85h7.18V182h-7.18v4.24h8v2.52h-10.75zm33.98 7.46l-5.22-7.46h3.51l3.69 5.78 3.65-5.78h3.38l-5.13 7.46 5.68 8.18h-3.53l-4.13-6.61-4.11 6.61h-3.36zm27.96-7.46h5.26a10.4 10.4 0 012.18.22 5.12 5.12 0 011.84.74 3.79 3.79 0 011.27 1.39 4.46 4.46 0 01.48 2.17 4.85 4.85 0 01-.51 2.39 3.69 3.69 0 01-1.37 1.4 5.83 5.83 0 01-2 .68 15.24 15.24 0 01-2.38.17h-2v6.48h-2.79zm4.46 6.78c.4 0 .81 0 1.24-.05a3.7 3.7 0 001.18-.26 2.13 2.13 0 00.89-.66 2.05 2.05 0 00.34-1.24 1.92 1.92 0 00-.31-1.16 2 2 0 00-.79-.66 3.2 3.2 0 00-1.09-.3 9.09 9.09 0 00-1.15-.07h-2v4.4zm25.7-6.78h10.36v2.51h-7.58v3.85h7.18V182h-7.18v4.24h8v2.52h-10.78zm30.15 0h5.44a11 11 0 012.17.21 5.82 5.82 0 011.87.71 3.8 3.8 0 011.3 1.37 4.49 4.49 0 01.49 2.19 4.41 4.41 0 01-.94 2.85 4 4 0 01-2.69 1.39l4.16 6.92h-3.36l-3.62-6.63h-2v6.63h-2.78zm4.95 6.62h1.19a3.86 3.86 0 001.1-.27 1.8 1.8 0 00.8-.64 2 2 0 00.31-1.2 1.87 1.87 0 00-.29-1.11 1.77 1.77 0 00-.75-.63 3.32 3.32 0 00-1-.27 8.19 8.19 0 00-1.09-.07h-2.44v4.24zm28.43-4.11h-4.8v-2.51h12.38v2.51h-4.8v13.13h-2.78zm33.8.84a2.67 2.67 0 00-1.18-.94 4.36 4.36 0 00-1.56-.29 3.61 3.61 0 00-.94.11 2.51 2.51 0 00-.82.35 1.76 1.76 0 00-.58.63 1.79 1.79 0 00-.22.92 1.42 1.42 0 00.55 1.21 5.19 5.19 0 001.37.73c.54.21 1.14.41 1.79.6a7.38 7.38 0 011.79.79 4.52 4.52 0 011.37 1.35 4.07 4.07 0 01.55 2.23 4.92 4.92 0 01-.47 2.2 4.43 4.43 0 01-1.24 1.56 5.44 5.44 0 01-1.83.92 7.46 7.46 0 01-2.18.31 8.3 8.3 0 01-2.81-.48 5.44 5.44 0 01-2.32-1.64l2.1-2a3.37 3.37 0 001.34 1.2 3.63 3.63 0 002.73.3 3.05 3.05 0 00.88-.4 2.05 2.05 0 00.64-.67 1.8 1.8 0 00.24-.94 1.62 1.62 0 00-.55-1.32 5 5 0 00-1.37-.79c-.55-.21-1.14-.41-1.79-.6a8 8 0 01-1.79-.79 4.42 4.42 0 01-1.37-1.32 4 4 0 01-.55-2.22 4.24 4.24 0 01.5-2.1 4.48 4.48 0 011.3-1.47 5.68 5.68 0 011.84-.87 7.64 7.64 0 012.12-.29 7.72 7.72 0 012.4.37 5.72 5.72 0 012.09 1.24z"/><path class="cls-1" d="M229.22 159.25h193v1.45h-193z"/><path class="cls-3" d="M347.11 112.39l-16.35 19.39-23.12-27.41v41.08h6.75v-22.14l16.3 18.93 16.3-18.98v22.19h6.88v-40.66l-6.76 7.6z"/><path class="cls-1" d="M268.31 8.69l-16.35 19.39L228.84.67v41.07h6.75V19.61l16.3 18.92 16.3-18.97v22.18h6.89V1.08l-6.77 7.61z"/><path class="cls-3" d="M257.51 62.54a11 11 0 00-3.1-4.09 13.91 13.91 0 00-4.72-2.51 19.38 19.38 0 00-5.94-.86h-14.84v38.75h6.71V81.09h7.45a20.92 20.92 0 005.84-.8 15 15 0 005-2.47 12.28 12.28 0 003.43-4.16 12.53 12.53 0 001.28-5.76 13.05 13.05 0 00-1.11-5.36zm-5.64 5.51a6.17 6.17 0 01-.58 2.72 5.81 5.81 0 01-1.64 2.06 8.33 8.33 0 01-2.72 1.4 12.79 12.79 0 01-3.68.5h-7.63V61.48h7.84a10.32 10.32 0 016.27 1.72 5.59 5.59 0 012.14 4.85zm44.32-13.02v6.41h12.13v32.35h6.71V61.44h12.12v-6.41h-30.96zm40.95 0h6.71v38.76h-6.71zm54.77 11.71A19 19 0 00381.67 56a20.88 20.88 0 00-16.11 0 19.77 19.77 0 00-6.26 4.4 20.16 20.16 0 00-4 6.38 21.21 21.21 0 000 15.26 19.08 19.08 0 0010.19 10.76 20.78 20.78 0 0016.11 0 19.31 19.31 0 006.25-4.4 19.89 19.89 0 004-6.37 20.47 20.47 0 001.44-7.64 21 21 0 00-1.38-7.65zm-5.46 7.73a14.61 14.61 0 01-1 5.32 13.57 13.57 0 01-2.65 4.31 12.24 12.24 0 01-4 2.86A12.75 12.75 0 01364.37 84a13 13 0 01-2.69-4.31 14.87 14.87 0 01-1-5.36 14.37 14.37 0 011-5.32 13.68 13.68 0 012.65-4.31 12 12 0 014-2.86 12.54 12.54 0 015.17-1 12.33 12.33 0 015.15 1.07 12.83 12.83 0 016.8 7.22 14.83 14.83 0 011 5.34zm-136.51 55.76a13.89 13.89 0 002.1-.88 12 12 0 003.29-2.46 10.68 10.68 0 002.19-3.53 12.64 12.64 0 00.76-4.52 12.29 12.29 0 00-1-5 11 11 0 00-2.81-3.86 12.52 12.52 0 00-4.3-2.45 16.67 16.67 0 00-5.5-.85h-15.89v38.76h6.46v-14h7.7l9.85 14h7.94zm-14.7-17.1h9.19a8.61 8.61 0 015.58 1.59 5.18 5.18 0 011.8 4.29 6 6 0 01-.53 2.6 5.27 5.27 0 01-1.46 1.9 7.35 7.35 0 01-2.34 1.24 10.14 10.14 0 01-3.1.45h-9.14zM388 114.18a11 11 0 00-2.91-4.09 13.07 13.07 0 00-4.48-2.53 17.45 17.45 0 00-5.63-.87h-14v38.76h6.47V132.7h6.92a18.44 18.44 0 005.53-.81 13.56 13.56 0 004.7-2.48 12.24 12.24 0 003.24-4.16 13.19 13.19 0 001.19-5.73 13.63 13.63 0 00-1.03-5.34zm-5.47 5.49a6.7 6.7 0 01-.54 2.74 5.9 5.9 0 01-1.55 2.06 7.38 7.38 0 01-2.52 1.38 11.05 11.05 0 01-3.41.5h-7.11v-13.26h7.29a9.2 9.2 0 015.82 1.7 5.8 5.8 0 012 4.88zm18.74 19.42v-10h18.52v-6.35h-18.52v-9.7h20.71v-6.35H394.8v38.76h27.42v-6.36h-20.95z"/><path class="cls-1" transform="rotate(-45 410.077 75.63)" d="M405.33 70.88h9.49v9.49h-9.49z"/><path class="cls-3" d="M292.3 93.82h7.36l-7.84-15.38v-.16h-.08l-12.62-24.74-20.53 40.28H266l4.62-9.06h17.11zM279.12 68l5.25 10.27h-10.49zm18.25 77.47h7.36l-7.84-15.38v-.15h-.08l-12.62-24.74-20.53 40.27H271l4.62-9.06h17.11zm-13.18-25.81l5.25 10.28H279z"/><path class="cls-1" d="M285.06 24.74V1.66h7.05v22.79c0 7.45 3.83 11.46 10.13 11.46s10.08-3.78 10.08-11.17V1.66h7.05v22.73c0 12-6.76 18-17.24 18s-17.07-6.02-17.07-17.65zm44.73-23.08h7v33.68h21.08v6.41h-28.08zm42.67 6.53h-12.71V1.66h32.53v6.53h-12.72v33.56h-7.1zm31.97-6.53h7.05v40.09h-7.05z"/></g></g></svg>