<svg xmlns="http://www.w3.org/2000/svg" viewBox="0 0 420.8 180.1"><defs><style>.cls-1{fill:#1a4a24}.cls-2,.cls-5,.cls-7{fill:none}.cls-2{stroke:#113919;stroke-miterlimit:10}.cls-2,.cls-4{stroke-width:.5px}.cls-3,.cls-4,.cls-8{fill:#fff}.cls-3,.cls-4,.cls-5{stroke:#eb6215}.cls-6{fill:#eb6215}.cls-7{stroke:#1a4a24;stroke-linecap:round;stroke-linejoin:round}.cls-9{fill:#113919}</style></defs><g id="Слой_2" data-name="Слой 2"><g id="Layer_1" data-name="Layer 1"><path class="cls-1" d="M48.62 68.3h331.39v56.86H48.62zm259.95-34.56H68.25v10.49H53.7V.25h14.55v10.48h240.32l24.29 11.5-24.29 11.51z"/><path class="cls-2" d="M308.57 33.74H68.25v10.49H53.7V.25h14.55v10.48h240.32l24.29 11.5-24.29 11.51z"/><path class="cls-1" d="M33.12 29.14h14.26v-15H33.12c-14 0-17.31 5.1-20 9.35-2.79 4.44-2.76 10.11-2.76 17.93V70H.4l10.2 21.17h14.62L35.42 70h-10V41.37c.13-8.53 1-12.29 7.69-12.23"/><path class="cls-2" d="M33.12 29.14h14.26v-15H33.12c-14 0-17.31 5.1-20 9.35-2.79 4.44-2.76 10.11-2.76 17.93V70H.4l10.2 21.17h14.62L35.42 70h-10V41.37c.14-8.53 1.02-12.29 7.7-12.23z"/><path class="cls-1" d="M186.26 144.68v9.88H92.28v15.26h93.98v9.88l21.17-10.2v-14.62l-21.17-10.2z"/><path class="cls-2" d="M186.26 144.68v9.88H92.28v15.26h93.98v9.88l21.17-10.2v-14.62l-21.17-10.2z"/><path class="cls-1" d="M309.18 144.68v9.88H215.2v15.26h93.98v9.88l21.17-10.2v-14.62l-21.17-10.2z"/><path class="cls-2" d="M309.18 144.68v9.88H215.2v15.26h93.98v9.88l21.17-10.2v-14.62l-21.17-10.2z"/><path class="cls-1" d="M83.76 154.25v15.06l-46 .33c-7.83 0-13.5 0-17.94-2.76-4.25-2.67-9.34-6-9.34-20V98.57h15.05v48.34c-.07 6.68 3.7 7.55 12.23 7.68z"/><path class="cls-2" d="M83.76 154.25v15.06l-46 .33c-7.83 0-13.5 0-17.94-2.76-4.25-2.67-9.34-6-9.34-20V98.57h15.05v48.34c-.07 6.68 3.7 7.55 12.23 7.68z"/><path class="cls-1" d="M420.4 120.43l-10.2-21.17h-14.62l-10.2 21.17h9.85l.31 22c-.12 8.53-1 12.29-7.68 12.23h-48.34v15.05h48.34c14 0 17.31-5.1 20-9.34 2.79-4.44 2.76-10.12 2.76-17.94l-.32-22z"/><path class="cls-2" d="M420.4 120.43l-10.2-21.17h-14.62l-10.2 21.17h9.85l.31 22c-.12 8.53-1 12.29-7.68 12.23h-48.34v15.05h48.34c14 0 17.31-5.1 20-9.34 2.79-4.44 2.76-10.12 2.76-17.94l-.32-22z"/><path class="cls-1" d="M401 18c-4.44-2.79-10.11-2.76-17.93-2.76l-21.53.31V5.45l-21.17 10.2v14.62l21.17 10.2v-9.86L383 30.3c8.53.13 12.29 1 12.23 7.69v53.85h15.07V38c0-14-5.1-17.31-9.35-20"/><path class="cls-2" d="M401 18c-4.44-2.79-10.11-2.76-17.93-2.76l-21.53.31V5.45l-21.17 10.2v14.62l21.17 10.2v-9.86L383 30.3c8.53.13 12.29 1 12.23 7.69v53.85h15.07V38c0-14-5.1-17.32-9.3-20z"/><path class="cls-3" d="M257.6 78.85c1.66 0 2.33.79 2.33 2.48 0 2.06-.52 2.88-2.33 2.88h-9.51v-5.36zm.24-5.26H241.6v21.15h6.49v-5.27h12.07c4.69 0 6.35-2.27 6.35-7.94 0-3.67-.79-5.88-3.06-7.07-1.34-.7-3.14-.87-5.61-.87zm19.53 12.54l4-7.48 4.1 7.48zm-4.51 8.61l2.07-3.52h12.89l2 3.52H297l-11.4-21.15h-8.23l-11.55 21.15z"/><path class="cls-4" d="M309.34 94.74V78.77h8.85v-5.18h-24.16v5.18h8.85v15.97h6.46zm11.58-21.15h6.46v21.15h-6.46z"/><path class="cls-3" d="M341.64 95h7.56c3.84 0 6.49-.17 8.24-1.48s2.27-3.26 2.27-6.4v-5.91c0-3.14-.67-5.18-2.27-6.4s-4.37-1.49-8.24-1.49h-7.59c-3.87 0-6.49.21-8.21 1.49s-2.3 3.4-2.3 6.66v5.76c0 3.06.59 5 2.3 6.29s4.45 1.48 8.24 1.48zm1.74-5.29c-4.1 0-5.7-.64-5.7-4v-2.93c0-3.58 1.48-4.16 5.67-4.16h4.14c4.1 0 5.67.61 5.67 4v3c0 3.44-1.57 4-5.67 4z"/><path class="cls-4" d="M243.26 106c1.66 0 2.32.75 2.32 2.38 0 2-.52 2.79-2.32 2.79H233V106zm.23-5.27h-17v21.15H233v-5.41h9.63c2.12 0 2.91.38 2.91 2.18v3.23H252v-4.38c0-2.16-1.14-3.49-3.35-4 2.65-.64 3.52-2.38 3.52-5.88-.01-5.52-2.28-6.94-8.68-6.94zm20.69 12.49l4-7.48 4.11 7.48zm-4.51 8.61l2.06-3.52h12.89l2 3.52h7.1l-11.35-21.15h-8.23l-11.55 21.15zm32.18 0v-15.07l8.67 15.07h4.22l8.73-15.07v15.07h6.26v-21.15h-9.4l-7.68 13.21-7.54-13.21h-9.54v21.15h6.28zm47.9-15.83c1.66 0 2.32.78 2.32 2.47 0 2.06-.52 2.88-2.32 2.88h-9.52V106zm.23-5.27h-16.24v21.15h6.49v-5.26h12.08c4.68 0 6.34-2.27 6.34-7.95 0-3.66-.79-5.88-3.06-7.07-1.33-.75-3.14-.92-5.59-.92zm34.77 5.1v-5.15h-23.1v21.15h23.36v-5.12h-16.9v-3.23h15.68v-4.45h-15.68v-3.2h16.64zM257.6 78.85c1.66 0 2.33.79 2.33 2.48 0 2.06-.52 2.88-2.33 2.88h-9.51v-5.36zm.24-5.26H241.6v21.15h6.49v-5.27h12.07c4.69 0 6.35-2.27 6.35-7.94 0-3.67-.79-5.88-3.06-7.07-1.34-.7-3.14-.87-5.61-.87zm19.53 12.54l4-7.48 4.1 7.48zm-4.51 8.61l2.07-3.52h12.89l2 3.52H297l-11.4-21.15h-8.23l-11.55 21.15z"/><path class="cls-5" d="M309.34 94.74V78.77h8.85v-5.18h-24.16v5.18h8.85v15.97h6.46zm11.58-21.15h6.46v21.15h-6.46z"/><path class="cls-4" d="M341.64 95h7.56c3.84 0 6.49-.17 8.24-1.48s2.27-3.26 2.27-6.4v-5.91c0-3.14-.67-5.18-2.27-6.4s-4.37-1.49-8.24-1.49h-7.59c-3.87 0-6.49.21-8.21 1.49s-2.3 3.4-2.3 6.66v5.76c0 3.06.59 5 2.3 6.29s4.45 1.48 8.24 1.48zm1.74-5.29c-4.1 0-5.7-.64-5.7-4v-2.93c0-3.58 1.48-4.16 5.67-4.16h4.14c4.1 0 5.67.61 5.67 4v3c0 3.44-1.57 4-5.67 4z"/><path class="cls-5" d="M243.26 106c1.66 0 2.32.75 2.32 2.38 0 2-.52 2.79-2.32 2.79H233V106zm.23-5.27h-17v21.15H233v-5.41h9.63c2.12 0 2.91.38 2.91 2.18v3.23H252v-4.38c0-2.16-1.14-3.49-3.35-4 2.65-.64 3.52-2.38 3.52-5.88-.01-5.52-2.28-6.94-8.68-6.94zm20.69 12.49l4-7.48 4.11 7.48zm-4.51 8.61l2.06-3.52h12.89l2 3.52h7.1l-11.35-21.15h-8.23l-11.55 21.15zm32.18 0v-15.07l8.67 15.07h4.22l8.73-15.07v15.07h6.26v-21.15h-9.4l-7.68 13.21-7.54-13.21h-9.54v21.15h6.28zm47.9-15.83c1.66 0 2.32.78 2.32 2.47 0 2.06-.52 2.88-2.32 2.88h-9.52V106zm.23-5.27h-16.24v21.15h6.49v-5.26h12.08c4.68 0 6.34-2.27 6.34-7.95 0-3.66-.79-5.88-3.06-7.07-1.33-.75-3.14-.92-5.59-.92zm34.77 5.1v-5.15h-23.1v21.15h23.36v-5.12h-16.9v-3.23h15.68v-4.45h-15.68v-3.2h16.64z"/><path class="cls-6" d="M53.7 50.92h14.5l11.34 53.78 11.72-53.78h14.19v90.42H93.89l.76-52.37-10.47 52.37H74.07L63.83 88.97l.9 52.37H53.7V50.92z"/><path class="cls-7" d="M53.7 50.92h14.5l11.34 53.78 11.72-53.78h14.19v90.42H93.89l.76-52.37-10.47 52.37H74.07L63.83 88.97l.9 52.37H53.7V50.92z"/><path class="cls-6" d="M125.16 50.93v72.85c0 5.11.68 6.36 3.4 6.36s3.4-1.25 3.4-6.36V50.93h12.24v61.23c0 10.47.78 18.08-1.87 23.81-2.49 5.37-7.57 6.49-14.07 6.49s-11.58-1-14.07-6.49c-2.64-5.73-1.79-13.46-1.79-23.81V50.93z"/><path class="cls-7" d="M125.16 50.93v72.85c0 5.11.68 6.36 3.4 6.36s3.4-1.25 3.4-6.36V50.93h12.24v61.23c0 10.47.78 18.08-1.87 23.81-2.49 5.37-7.57 6.49-14.07 6.49s-11.58-1-14.07-6.49c-2.64-5.73-1.79-13.46-1.79-23.81V50.93z"/><path class="cls-6" d="M151 50.92h12.77v78.72h13.59v11.7H151V50.92z"/><path class="cls-7" d="M151 50.92h12.77v78.72h13.59v11.7H151V50.92z"/><path class="cls-6" d="M181.68 64.13h-8.54V50.92h29.92v13.21h-8.61v77.21h-12.77V64.13z"/><path class="cls-7" d="M181.68 64.13h-8.54V50.92h29.92v13.21h-8.61v77.21h-12.77V64.13z"/><path class="cls-6" d="M207.34 50.93h12.77v90.41h-12.77z"/><path class="cls-7" d="M207.34 50.93h12.77v90.41h-12.77z"/><path class="cls-8" d="M74.36 31.75a1.63 1.63 0 01-1.63-1.63V14.38a1.63 1.63 0 013.25 0v15.74a1.63 1.63 0 01-1.62 1.63"/><path class="cls-9" d="M74.36 13.59a.8.8 0 01.79.79v15.74a.79.79 0 01-1.58 0V14.38a.79.79 0 01.79-.79m0-1.67a2.47 2.47 0 00-2.47 2.46v15.74a2.47 2.47 0 004.93 0V14.38a2.46 2.46 0 00-2.46-2.46"/><path class="cls-8" d="M84.17 31.75a1.63 1.63 0 01-1.63-1.63V14.38a1.63 1.63 0 013.25 0v15.74a1.62 1.62 0 01-1.62 1.63"/><path class="cls-9" d="M84.17 13.59a.8.8 0 01.79.79v15.74a.79.79 0 01-1.58 0V14.38a.79.79 0 01.79-.79m0-1.67a2.46 2.46 0 00-2.46 2.46v15.74a2.46 2.46 0 104.92 0V14.38a2.46 2.46 0 00-2.46-2.46"/><path class="cls-8" d="M93.41 31.75a1.63 1.63 0 01-1.62-1.63V14.38a1.63 1.63 0 013.25 0v15.74a1.63 1.63 0 01-1.63 1.63"/><path class="cls-9" d="M93.41 13.59a.79.79 0 01.79.79v15.74a.79.79 0 11-1.58 0V14.38a.8.8 0 01.79-.79m0-1.67A2.46 2.46 0 0091 14.38v15.74a2.46 2.46 0 104.92 0V14.38a2.46 2.46 0 00-2.46-2.46"/><path class="cls-8" d="M308.15 28.91c-1.47 0-1.63-.72-1.63-1v-4c0-.31.16-1 1.63-1s1.63.73 1.63 1v4c0 .32-.16 1-1.63 1"/><path class="cls-9" d="M308.15 23.63c.44 0 .79.09.79.2v4c0 .12-.35.21-.79.21s-.79-.09-.79-.21v-4c0-.11.35-.2.79-.2m0-1.68c-2.34 0-2.46 1.57-2.46 1.88v4c0 .32.12 1.88 2.46 1.88s2.46-1.56 2.46-1.88v-4c0-.31-.12-1.88-2.46-1.88"/><path class="cls-8" d="M314 28.91c-1.47 0-1.63-.72-1.63-1v-4c0-.31.16-1 1.63-1s1.62.73 1.62 1v4c0 .32-.15 1-1.62 1"/><path class="cls-9" d="M314 23.63c.43 0 .79.09.79.2v4c0 .12-.36.21-.79.21s-.79-.09-.79-.21v-4c0-.11.35-.2.79-.2m0-1.63c-2.35 0-2.46 1.57-2.46 1.88v4c0 .32.11 1.88 2.46 1.88s2.46-1.56 2.46-1.88v-4c0-.31-.12-1.88-2.46-1.88"/></g></g></svg>