<svg xmlns="http://www.w3.org/2000/svg" viewBox="0 0 398.99 73.56"><defs><style>.cls-1,.cls-2{fill:#113919}.cls-2{fill-rule:evenodd}</style></defs><g id="Слой_2" data-name="Слой 2"><g id="Layer_1" data-name="Layer 1"><path class="cls-1" d="M248.63 44.16c.54-.19 1.18-.4 1.37.16.78 2.28 1.84 6.52 5 6.52 1.84 0 3.07-1.87 3.07-3.45 0-2.89-2.71-2.69-6.15-5.27a9.19 9.19 0 01-3.42-7.53c0-3.47 1.82-8.41 5.86-8.41a7.86 7.86 0 014.55 1.13c.76.5.81.59.88 1.47l.45 5.55c-.41.49-1.26 1.06-1.53.27-.68-2-1.68-6-4.29-6-2.17 0-2.78 2-2.78 3.74s1.38 3 2.93 3.76c4.84 2.3 7 4.66 7 9.14s-1.67 8.05-6.76 8.05c-1.29 0-5.48-.28-5.61-1.92zM142.39 28.65L137 51.7c2.89.51 4.78 0 7.62-.69l-.51 2.47c-7.31 2.7-13.46-1-20.86 1l.9-3.51c3.08 0 4.64-.56 5.51-1.35 1.37-1.24 2.39-3.43 3.13-6.55l5.66-24.27a43.77 43.77 0 001-5.47c0-1.47-1.36-1.56-2.5-1.52l.52-2.08a39.36 39.36 0 009.79-1.61L143 25.83c7.82 1.7 15.54-3.7 15.54-12.37 0-6.17-5.24-9.24-10.76-9.24-8.13 0-17.12 4.4-21.53 11.48-3.19 5.12-4.85 12.57.08 17.16 5.08 4.66-.44 8.28-3.72 3-3.84-6.26-2.32-15.23 1.25-21.23 5.06-8.5 15.59-13.32 25.14-13.32 7.18 0 16.5 2.56 16.5 11.5s-8.26 14.5-16 15.84c6.52 10 8.63 35.6 20.43 35.6a4.75 4.75 0 005-3.78c2-7.39 8.3-1.2 2.5 3.9a10.19 10.19 0 01-7.07 2.43c-17.93 0-21.52-25.3-25.85-38.15a9 9 0 00-2.08 0"/><path class="cls-2" d="M169.32 39.87c-2.67 1.55-5.29 4.36-5.29 7.6 0 .93 1 3.17 2.29 3.17s2.65-2 2.91-3.26a35.49 35.49 0 00.17-4.66c0-.95 0-1.9-.08-2.85m6.73 8.69c-.17 1.69-.75 5.26-3 5.26s-2.9-3.27-3.32-5c-.89 2.88-2.73 4.98-5.73 4.98-2.79 0-4.44-2.51-4.44-5.06 0-5.73 5.9-8.37 9.8-11.1 0-3.15.49-9.4-1.85-9.4-2.6 0-3.08 2.77-3.28 4.88-.37 4.21-5.82 6.56-3.66.06 1.43-3.95 4.24-7 8.42-7a4.15 4.15 0 014.07 3.82c.76 4.93.56 11.7.4 17-.08 2.55.64 3.1 1.6.62.39-1 1.05.37 1 1m65-13.48c0-1.93-.55-6.93-3.27-6.93s-3.29 5.09-3.37 6.93zm-3.27-9c6 0 7.34 6 7.42 10.94h-10.79c-.39 4.44-.47 11.74 4.15 12a6.46 6.46 0 005.55-2.61c.44.55.8 1 1.1 1.48-1.56 2.91-3.88 5.87-7.43 5.87-5.76 0-7.76-7.75-7.76-12.54s1.52-15.1 7.76-15.1m-23.08 20.38c.41 2.27 1 4.63 3.87 4.63 3.84 0 4.52-6.11 4.52-8.91 0-3.21-.74-11-5.29-11a5.49 5.49 0 00-3.08 1.17zm-3.87 17.25V35.37c0-4.06-.64-4.37-2.91-4.56V29a6.67 6.67 0 003.36-1.23 8.93 8.93 0 002.13-2.66h1.32v4.68c1.77-1.83 3.25-3.4 5.89-3.4 5.86 0 6.8 10.68 6.65 14.49-.19 4.55-2.11 13-7.76 13a6.69 6.69 0 01-4.78-2.26v12.23c0 1.74 1.18 2.78 2.68 3.41v1.8a21 21 0 00-9.27 0v-1.8c1.5-.63 2.7-1.68 2.7-3.45M205 48.09V35.37c0-3.46-.81-9-5.38-9-2.89 0-4.25 1.45-5.62 3.7a5.38 5.38 0 00-5.34-3.7c-2.62 0-4.19 1.78-5.66 3.75v-5h-1.31a9 9 0 01-2.13 2.65 6.7 6.7 0 01-3.4 1.23v1.8c2.27.2 2.89.5 2.89 4.57v12.72c0 1.81-1.2 2.86-2.7 3.49v1.8a20.77 20.77 0 019.28 0v-1.8c-1.5-.63-2.68-1.67-2.68-3.49V33.41a3.79 3.79 0 013.78-3.72c3.32 0 3.32 3.72 3.32 5.66v12.73c0 1.81-1.2 2.85-2.7 3.49v1.8a20.72 20.72 0 019.27 0v-1.8c-1.49-.64-2.67-1.68-2.67-3.49V33.41a3.81 3.81 0 013.77-3.72c3.33 0 3.32 3.72 3.33 5.56v12.84c0 1.81-1.19 2.86-2.69 3.49v1.8a21 21 0 019.27 0v-1.8c-1.5-.63-2.68-1.67-2.67-3.49"/><path class="cls-1" d="M397.53 21c-2.66 0-4.41 3.84-4.83 6a5.86 5.86 0 00.07 3.11c-3.16 6.56-5.42 10.72-9.86 16.32s-9 5.19-6.89-1.2c1.54-4.54 3-9.09 4.52-13.63.15-.44.37-.66.57-.66 1 0 2.84.38 3.25-.77l.48-1.36a14.79 14.79 0 00.44-1.51c.46-1.89-3.25.09-2.63-1.78 1.44-4.32 3-8.32 4.35-12.66 1-3.06-2.95-3.49-3.87-1.11-1.57 4.64-3.14 9.28-4.64 13.93-.86 1.58-2.21-.07-2.73 1.38l-.86 2.47c-.94 2.69 1.92.55 1.63 1.92-1.56 4.93-2.69 9.38-4.59 14.45-.52 1.4-3.54 4.68-4.82 4.81-5.55.57 2.24-14 2.95-16.59.72-2.77-.6-4.65-2.39-6.55-.55-.59-1-.94-.74-1.82a9.09 9.09 0 00.54-1.92c.74-5.38-2.67-3.86-3.9.52a9.39 9.39 0 00-.43 3.26 4.79 4.79 0 01-.16 1.92c-1.21 3.73-10.13 28.75-16.73 19.92-.36-.48-.42-.65-.05-1.18 3.51-4 7-9.22 8.22-13.93 3.3-12.38-5.45-11.85-9.73-2.14a48.49 48.49 0 00-3.48 11c-.59 5.69-3.48 7.23-4.46 7.48-1.39.36-4 .26-2.77-1.48a43.17 43.17 0 006.66-16.67c.33-1.8.63-7.33-2.56-7.33q-2.32 0-6.86 7.28c-.26.43-.44.54-.35-.07.28-1.82 2.86-8.62 3.23-9.58 1.21-3.16-2.36-3.63-3.55-.82q-3.75 11.37-7.37 22.74c-.87 2.35-2.84 6.1-5.42 6-4.13-.16-3-8.55-2.86-11.17a4.61 4.61 0 01.34-1.26c1.21-2.11 4.76-9 7.38-9 1.46 0 2.16-4.52.24-4.52-2.39 0-5.88 6-7 7.92-.25.41-.61 1.11-.52-.14.1-1.94.62-8.07-1.93-8.07-1.75 0-2.68 3.12-2.47 4.26a3.23 3.23 0 00.28.7c.81 2.79.13 6.65 0 9.56a2.89 2.89 0 01-.4 1.63C306 48.1 288.9 67 279.75 67c-10.22 0 9.48-25.09 12.87-28.16 1.69-1.61 3.32 0 5.56-.72s5.31-2.71 5.65-5.06-1.07-3.53-3.34-3.53-4 1.26-5.7 2.17c-.49.25-.84.25-1 0-3-4.31 10.55-24.09 17.75-23.88 2 0 3.44 2.17 4.21 2.17 3.75 0 2.15-7.79-3.74-7.79-13.36 0-27.87 20.11-24.1 30.26.53 1.38 1.68 2.46.08 3.69C281 41 254.37 73.56 276.38 73.56c12.46 0 27.7-17.51 34-27.25.58-.9.5-1 .58 0 .2 2.69.43 5.91 2 7.68 1.15 1.29 4.84 1.76 7.72-1.24.73-.77.64-.81.25.13-2.29 5.54-4.18 11.08-6.25 16.67-1.16 3.13 3 2.92 4.11.22 1.61-5 3.22-10 4.87-15 .18-.3.37-.42.56-.37 2 .45 3.1.74 5.12-.52a.51.51 0 01.62.15c3.45 2.77 8.82-.12 11.07-3.53.62 3 2.44 4.64 6.23 4.64 10.27 0 14.48-16.2 17.07-22.89.25-.69.46-.91.62-.67a4 4 0 01.73 4.37c-2 4-6.8 14.89-3.82 18.08s8-1.27 9.67-3.71c.35 6.61 7.77 5.08 10.17.55 1.79 4.6 4.95 4.51 8.63 2.16a5 5 0 004 1.44l1.52-4.3a3 3 0 01-2.47-.75c4.13-5.75 4.79-13.36 2.69-20a11.94 11.94 0 002.83-5.4c.21-1.13.25-3.11-1.36-3.11m-67.3 28.23c-.58-.81-2.49-1.64-3.66-.86-.67.45-.72 0-.56-.48 1.48-4.39 4.86-12.47 8.51-15.93 1-.91 1.84-.66 2.15.41.77 2.6-1.17 6.69-2.25 9.23a62 62 0 01-4.19 7.63m14.84-5.93c.65-3.6 2.11-8.73 4.83-11.89 2-2.32 3-1.23 2.59 1.15-.74 4.07-3.69 8.86-6.9 12.07-.63.69-.8.25-.52-1.33m42 7c0-1.2-.23-2.93-1.27-3.71a65.57 65.57 0 007.22-12c-.08 4.27-1 14.07-5.95 15.71"/><path class="cls-2" d="M19.35 10.54l.48-2a62.33 62.33 0 0010-1.74l-5.17 20.27 3.69.25c7.64.53 13.43-7.91 13.43-15S36.05 2.75 30 2.75A28.69 28.69 0 006.47 15.84c-4 6.4-5.67 14.81.66 20.07 4.82 3.86-.68 8.38-4.77 1.78-5.21-8.26-1-20.28 4.77-27Q16.31 0 31.72 0c7.67 0 17.12 3 17.12 12.42C48.84 23.85 36.93 30 27.06 30c-.63 0-1.65 0-3-.14l-5 20.35a18.64 18.64 0 0011.78-.47l-.48 2.52c-8.28 2.63-16.28-1-24.63 1l.48-2.56c6.15-1.09 7.79-3.7 9.25-9.78l6.06-26.1c.47-2.09.83-4.8-2.17-4.28"/><path class="cls-2" d="M47.11 39.93c-2.67 1.55-5.3 4.36-5.3 7.6 0 .93 1 3.16 2.29 3.16 1.41 0 2.66-1.95 2.92-3.26a35.38 35.38 0 00.17-4.66c0-1 0-1.89-.08-2.84m6.73 8.69c-.17 1.69-.75 5.25-3 5.25s-2.9-3.26-3.32-5c-.92 2.85-2.76 5-5.78 5-2.79 0-4.44-2.51-4.44-5.07 0-5.73 5.9-8.36 9.8-11.09 0-3.16.49-9.41-1.85-9.41-2.6 0-3.08 2.78-3.29 4.89-.36 4.2-5.81 6.56-3.65 0 1.43-3.94 4.24-7 8.42-7A4.15 4.15 0 0150.85 30c.76 4.93.56 11.7.4 17-.08 2.56.63 3.1 1.61.63.38-1 1 .36 1 1m44.34-4.06c.54-.2 1.18-.4 1.37.16.78 2.32 1.84 6.65 5 6.65 1.84 0 3.07-1.91 3.07-3.52 0-2.94-2.71-2.74-6.15-5.37a9.45 9.45 0 01-3.42-7.67c0-3.55 1.82-8.59 5.87-8.59a7.68 7.68 0 014.54 1.16c.76.5.81.6.88 1.49l.45 5.67c-.41.49-1.26 1.08-1.53.27-.68-2-1.68-6.13-4.29-6.13-2.17 0-2.78 2.08-2.78 3.82s1.39 3.08 2.93 3.83c4.84 2.34 7 4.75 7 9.32s-1.67 8.21-6.76 8.21c-1.29 0-5.47-.29-5.6-2zm-31.47 8.85v-1.8c1.58-.64 2.84-1.68 2.84-3.48V33.82c0-2.18-.44-2.77-2.71-3V29a6.61 6.61 0 003.36-1.22 9.26 9.26 0 002.13-2.66h1.31v23c0 1.8 1.24 2.84 2.81 3.48v1.8a22.85 22.85 0 00-9.74 0m-11.4-24c3-2.14 4.1-4.48 5.23-7.94h1v7.08h3.73v2.8h-3.73l-.06 12c0 1.12 0 6.31 1.47 6.31 1 0 1.34-.86 1.91-1.49.36.49.94 1 .8 1.56a4.75 4.75 0 01-4.34 3.69c-4.39 0-3.81-9.74-3.8-13.07v-9h-1.09c-.91 0-1.13-.1-1.13-1zm16.26-17.48c1.25 0 2.28 1.86 2.28 4.14s-1 4.14-2.28 4.14-2.29-1.86-2.29-4.14 1-4.14 2.29-4.14m15.13 16.47c3.18 0 4 5.25 4 11.69s-.73 11.65-4 11.68-4-5.25-4-11.68.49-11.69 4-11.69m-.1-2.16c4.68 0 8.49 6.21 8.49 13.82s-3.81 13.82-8.49 13.82-8.5-6.21-8.5-13.82 3.82-13.82 8.5-13.82"/></g></g></svg>