<svg xmlns="http://www.w3.org/2000/svg" viewBox="0 0 84.12 94.44"><defs><style>.cls-1{fill:#e53320;}</style></defs><title>conseils</title><g id="Слой_2" data-name="Слой 2"><g id="Layer_1" data-name="Layer 1"><path class="cls-1" d="M40.4,94.44a18.75,18.75,0,0,1-2.62-1.61,4.4,4.4,0,0,1-1.38-3.5c0-.51-.12-.73-.67-.85a4.43,4.43,0,0,1-2.87-2.15C32,85,31.18,83.54,30.27,82.19a1.61,1.61,0,0,0-1.07-.61,2.89,2.89,0,0,1-2.95-3.09c0-1.34.21-2.67.3-4,0-.2-.1-.41-.1-.62,0-1.67,0-3.34,0-5,0-.21.09-.42.07-.62-.09-1.4-.24-2.79-.28-4.19a2.86,2.86,0,0,1,1.16-2.31,1.51,1.51,0,0,0,.5-1A17,17,0,0,0,27.86,58a6,6,0,0,0-2.8-4.34,29,29,0,0,1-11-14.75,29.5,29.5,0,0,1,16-36.34A28,28,0,0,1,39.23.15,4.66,4.66,0,0,0,39.85,0h4.42c2,.37,3.95.62,5.86,1.14A29.49,29.49,0,0,1,71.35,25.78a3.07,3.07,0,0,1-.11,1.35,1.2,1.2,0,0,1-1.44.72,1.43,1.43,0,0,1-1.16-1.37c-.24-1.3-.41-2.61-.75-3.88a26.75,26.75,0,0,0-52.53,8.59A25.54,25.54,0,0,0,26.09,50.93c3.22,2.37,4.88,5.25,4.63,9.22,0,.3,0,.61,0,1H37c0-.27,0-.57,0-.86,0-2.8.08-5.6,0-8.39a6.67,6.67,0,0,0-.87-2.83c-.77-1.39-1.75-2.67-2.65-4a6.9,6.9,0,0,1-1.21-4c0-1.72,0-3.43,0-5.12C29.88,35.21,29,34.1,29,32s.88-3.22,3.3-4c.12-1-.18-2.42,1.5-2.51.92,0,1.24.59,1.37,2.56h2.7a8.23,8.23,0,0,1,1.11,0,1.39,1.39,0,0,1,1.28,1.43,1.35,1.35,0,0,1-1.41,1.29c-1.93,0-3.87,0-5.81,0-1,0-1.33.35-1.27,1.33a.85.85,0,0,0,.93.91c.64,0,1.29,0,1.93,0H51.09c.71,0,1.3-.1,1.31-1s-.25-1.24-1.17-1.25H45.69c-1.15,0-1.79-.51-1.78-1.38s.66-1.37,1.82-1.38,2.14,0,3.32,0c0-.44,0-.8,0-1.16a1.37,1.37,0,0,1,1.29-1.41,1.31,1.31,0,0,1,1.42,1.28c-.06,1,.35,1.35,1.27,1.67,1.54.54,2.22,2,2.12,4a3.56,3.56,0,0,1-2.48,3.22c-.26.09-.52.15-.86.24,0,1.63,0,3.25,0,4.88a7.33,7.33,0,0,1-1.36,4.5,44.78,44.78,0,0,0-2.56,3.83,6.15,6.15,0,0,0-.81,2.66c-.1,3.1,0,6.2,0,9.36h6.36V59.05a8.65,8.65,0,0,1,3.82-7.46A26.82,26.82,0,0,0,68.59,33.13c.17-1.08.75-1.64,1.57-1.54s1.32.88,1.14,2.05A29.33,29.33,0,0,1,58.92,53.77a6.16,6.16,0,0,0-2.75,5.43c0,.46,0,.92,0,1.38a1.34,1.34,0,0,0,.55,1.25,2.69,2.69,0,0,1,1,1.48c.3,1.72-.07,3.48-.06,5.18a50.87,50.87,0,0,1,.11,5.1,13.12,13.12,0,0,0,0,1.4,38,38,0,0,1,0,4.4A2.59,2.59,0,0,1,55,81.54a1.25,1.25,0,0,0-1.24.71c-.79,1.35-1.65,2.66-2.46,4a4.92,4.92,0,0,1-3,2.28c-.23.06-.55.34-.55.53a5.34,5.34,0,0,1-4,5.38ZM35.07,35.93c0,1.72-.09,3.38,0,5a6.54,6.54,0,0,0,.81,2.66c.78,1.39,1.74,2.67,2.65,4a7.06,7.06,0,0,1,1.27,4.15c0,2.8,0,5.59,0,8.39v1h4.46c0-3.14,0-6.21,0-9.28a7.3,7.3,0,0,1,1.36-4.4q1.32-1.89,2.57-3.82a3.35,3.35,0,0,0,.67-1.48c.08-2.07,0-4.14,0-6.23ZM29.05,67h26v-3h-26Zm26,8.74h-26v3h26Zm-26-2.9H55V69.91h-26Zm4.14,8.74c.71,1.16,1.36,2.17,2,3.19a2.12,2.12,0,0,0,2,1.11c3.28,0,6.57,0,9.85,0a2.12,2.12,0,0,0,1.49-.53c.89-1.14,1.62-2.4,2.5-3.75Zm6.06,7.1c-.17,1.36.18,2.21,1.07,2.69a4.5,4.5,0,0,0,3.79-.2,2.23,2.23,0,0,0,.69-2.49Z"/><path class="cls-1" d="M80.24,28.38c.83,0,1.66,0,2.49,0a1.34,1.34,0,0,1,1.39,1.3,1.31,1.31,0,0,1-1.27,1.42c-1.71.06-3.43.06-5.15,0a1.35,1.35,0,0,1-1.31-1.4,1.38,1.38,0,0,1,1.46-1.33C78.65,28.36,79.44,28.37,80.24,28.38Z"/><path class="cls-1" d="M74.94,37.89c.53.22.86.31,1.14.47,1.31.74,2.62,1.48,3.91,2.25a1.41,1.41,0,0,1,.67,2,1.4,1.4,0,0,1-2,.4c-1.39-.78-2.78-1.58-4.14-2.4a1.19,1.19,0,0,1-.64-1.55A5.16,5.16,0,0,1,74.94,37.89Z"/><path class="cls-1" d="M80.85,17.86a2.92,2.92,0,0,1-.71.9c-1.37.86-2.79,1.66-4.21,2.44a1.37,1.37,0,1,1-1.34-2.39c1.37-.82,2.74-1.63,4.14-2.39C79.76,15.86,80.84,16.47,80.85,17.86Z"/><path class="cls-1" d="M4.5,43.45c-.38-.34-1-.63-1.09-1.05a1.75,1.75,0,0,1,.4-1.53c1.5-1,3.09-1.87,4.68-2.72a1.2,1.2,0,0,1,1.6.53A1.1,1.1,0,0,1,10,40.27c-1.67,1.07-3.42,2-5.15,3,0,0-.12,0-.18,0Z"/><path class="cls-1" d="M3.82,31.14c-.74,0-1.47,0-2.21,0-1,0-1.6-.54-1.61-1.38s.58-1.36,1.59-1.37c1.54,0,3.07,0,4.61,0a1.39,1.39,0,0,1,1.53,1.35,1.43,1.43,0,0,1-1.52,1.4C5.41,31.16,4.62,31.14,3.82,31.14Z"/><path class="cls-1" d="M10.32,19.82c0,1.22-1,1.94-2,1.46-1.55-.81-3-1.7-4.53-2.62a1.24,1.24,0,0,1-.38-1.79,1.24,1.24,0,0,1,1.75-.53c1.54.82,3,1.71,4.52,2.63C10.05,19.17,10.2,19.64,10.32,19.82Z"/></g></g></svg>