<svg xmlns="http://www.w3.org/2000/svg" viewBox="0 0 199.94 128.04"><defs><style>.cls-1,.cls-2{fill:none;stroke:#1d1d1b;stroke-linecap:round;stroke-linejoin:round;}.cls-1{stroke-width:4px;}.cls-2{stroke-width:0.75px;}</style></defs><title>intimite</title><g id="Слой_2" data-name="Слой 2"><g id="Layer_1" data-name="Layer 1"><line class="cls-1" x1="2.48" y1="126.04" x2="2.48" y2="2"/><line class="cls-1" x1="197.94" y1="126.04" x2="197.94" y2="2"/><line class="cls-1" x1="197.94" y1="2" x2="2" y2="2"/><line class="cls-1" x1="197.94" y1="66.76" x2="2" y2="66.76"/><line class="cls-2" x1="19.21" y1="66.76" x2="19.21" y2="2"/><line class="cls-2" x1="35.34" y1="66.76" x2="35.34" y2="2"/><line class="cls-2" x1="51.47" y1="66.76" x2="51.47" y2="2"/><line class="cls-2" x1="67.6" y1="66.76" x2="67.6" y2="2"/><line class="cls-2" x1="83.73" y1="66.76" x2="83.73" y2="2"/><line class="cls-2" x1="99.86" y1="66.76" x2="99.86" y2="2"/><line class="cls-2" x1="115.99" y1="66.76" x2="115.99" y2="2"/><line class="cls-2" x1="132.12" y1="66.76" x2="132.12" y2="2"/><line class="cls-2" x1="148.25" y1="66.76" x2="148.25" y2="2"/><line class="cls-2" x1="164.38" y1="66.76" x2="164.38" y2="2"/><line class="cls-2" x1="180.51" y1="66.76" x2="180.51" y2="2"/></g></g></svg>